<?xml version="1.0" encoding="UTF-8" standalone="no" ?>
<!DOCTYPE svg PUBLIC "-//W3C//DTD SVG 1.1//EN" "http://www.w3.org/Graphics/SVG/1.1/DTD/svg11.dtd">
<svg xmlns="http://www.w3.org/2000/svg" xmlns:xlink="http://www.w3.org/1999/xlink" version="1.1" width="1080" height="1080" viewBox="0 0 1080 1080" xml:space="preserve">
<desc>Created with Fabric.js 5.2.4</desc>
<defs>
</defs>
<g transform="matrix(1 0 0 1 540 540)" id="68c1a781-602d-430a-9300-82736bb129b4"  >
<rect style="stroke: none; stroke-width: 1; stroke-dasharray: none; stroke-linecap: butt; stroke-dashoffset: 0; stroke-linejoin: miter; stroke-miterlimit: 4; fill: rgb(255,255,255); fill-rule: nonzero; opacity: 1; visibility: hidden;" vector-effect="non-scaling-stroke"  x="-540" y="-540" rx="0" ry="0" width="1080" height="1080" />
</g>
<g transform="matrix(1 0 0 1 540 540)" id="ea8845c6-e553-4137-89a6-dc1f0201a442"  >
</g>
<g transform="matrix(11.12 0 0 11.12 559.02 894.04)"  >
<g style="" vector-effect="non-scaling-stroke"   >
		<g transform="matrix(1 0 0 1 0.55 -45.59)"  >
<path style="stroke: none; stroke-width: 1; stroke-dasharray: none; stroke-linecap: butt; stroke-dashoffset: 0; stroke-linejoin: miter; stroke-miterlimit: 4; fill: rgb(64,81,204); fill-rule: evenodd; opacity: 1;" vector-effect="non-scaling-stroke"  transform=" translate(-88.55, -25.91)" d="M 97.3341 5.11523 C 105.432 8.53663 111.106 16.5498 111.106 25.9041 C 111.106 31.661 108.957 36.9023 105.419 40.8833 C 104.962 40.0157 104.395 38.3296 105.178 36.024 C 106.097 33.3313 104.517 29.8835 102.635 28.4596 C 101.567 27.6483 99.8808 28.6568 98.8776 28.8275 C 96.8184 29.1847 95.5583 28.1992 94.4935 25.3145 C 92.7265 20.5415 96.1901 17.9226 98.1842 17.0497 C 100.175 16.1714 102.044 14.8145 103.313 15.4463 C 104.161 15.867 104.328 16.8631 104.617 17.0989 C 105.43 17.7642 106.34 18.1268 107.289 17.3189 C 108.577 16.2207 105.02 12.7782 102.896 12.9524 C 100.493 13.1478 100.326 14.2249 99.0448 15.0081 C 97.7565 15.7948 95.6023 15.837 95.8628 13.7831 C 96.1831 11.2576 99.2367 13.542 98.4077 10.6345 C 97.5788 8.30784 99.5341 10.2667 100.361 9.10511 C 101.188 7.94352 99.6309 7.14625 98.7579 8.03504 C 97.8903 8.92559 96.7797 8.04032 97.1722 5.89842 C 97.262 5.40739 97.2954 5.27539 97.3324 5.11347 L 97.3341 5.11523 Z M 80.1391 4.96739 C 80.3186 5.7189 80.7709 7.28529 81.489 7.81152 C 82.4447 8.50847 82.9216 9.90766 81.7266 10.455 C 80.5316 10.9971 80.074 11.2875 80.8501 11.6166 C 81.6245 11.9475 81.049 13.4646 79.9156 13.0739 C 78.7821 12.6867 77.4076 12.1024 77.309 13.3273 C 77.2105 14.5523 76.3868 15.9655 75.7673 16.6642 C 75.1478 17.3665 74.5423 17.6234 74.7588 18.5738 C 74.9788 19.5295 74.3716 20.2669 74.0038 19.452 C 73.636 18.6354 72.1558 18.5597 71.2177 19.4679 C 71.2177 19.4679 68.6306 22.3807 69.984 22.657 C 71.6648 23.0054 73.6025 23.1234 74.1199 24.952 C 74.4596 26.14 75.234 27.1256 76.7881 26.4656 C 78.3386 25.8038 80.2517 25.6701 81.7741 27.2083 C 83.2965 28.7465 84.3525 26.9601 85.9646 30.5347 C 87.6524 32.7857 91.945 29.0369 89.599 36.0012 C 88.1382 40.3378 86.4416 38.1959 86.0579 40.0562 C 85.4296 43.0939 80.8202 47.0468 80.8202 47.0468 L 77.3865 45.4575 C 77.3865 45.4575 78.9617 38.5303 77.3865 37.2666 C 75.8078 36.0012 74.09 32.2366 74.5142 30.4783 C 74.9348 28.7201 75.9222 28.1446 73.6131 26.8792 C 71.304 25.6155 71.7281 24.4064 69.9822 23.9946 C 68.5654 23.6566 66.7351 23.9893 66.0698 24.1301 C 66.1279 23.3874 66.2211 22.657 66.3514 21.9354 L 67.2437 18.4946 C 69.3821 12.3312 74.1147 7.38913 80.1408 4.97091 L 80.1391 4.96739 Z M 88.55 0.683594 C 74.6356 0.683594 63.326 11.9932 63.326 25.9041 C 63.326 39.815 74.6356 51.1282 88.55 51.1282 C 102.464 51.1282 113.771 39.8186 113.771 25.9041 C 113.771 11.9897 102.463 0.683594 88.55 0.683594 Z" stroke-linecap="round" />
</g>
		<g transform="matrix(1 0 0 1 -0.3 -12.82)"  >
<linearGradient id="SVGID_paint0_linear_188_1280_3" gradientUnits="userSpaceOnUse" gradientTransform="matrix(1 0 0 1 0 0)"  x1="50.0856" y1="42.8809" x2="165.915" y2="82.9627">
<stop offset="9%" style="stop-color:rgb(65,99,204);stop-opacity: 1"/>
<stop offset="52%" style="stop-color:rgb(20,179,196);stop-opacity: 1"/>
<stop offset="86%" style="stop-color:rgb(0,225,172);stop-opacity: 1"/>
</linearGradient>
<path style="stroke: none; stroke-width: 1; stroke-dasharray: none; stroke-linecap: butt; stroke-dashoffset: 0; stroke-linejoin: miter; stroke-miterlimit: 4; fill: url(#SVGID_paint0_linear_188_1280_3); fill-rule: nonzero; opacity: 1;" vector-effect="non-scaling-stroke"  transform=" translate(-87.7, -58.68)" d="M 122.947 60.1762 L 131.156 64.3826 L 87.7932 84.1437 L 44.5487 60.9348 L 52.7572 57.4571 L 56.4814 59.4582 L 56.2191 59.5743 C 56.2473 59.6623 56.2772 59.7503 56.2772 59.8524 C 56.2772 60.2167 55.971 60.5247 55.6049 60.5247 C 55.3127 60.5247 55.0787 60.3646 54.9766 60.1164 L 52.2011 61.315 L 54.9326 62.7757 L 54.9326 62.6877 C 54.9326 62.0594 55.443 61.549 56.0713 61.549 C 56.6996 61.549 57.21 62.0594 57.21 62.6877 C 57.21 63.1119 56.9759 63.4903 56.6257 63.6804 L 62.3368 66.748 C 62.3949 66.4418 62.673 66.2077 62.9951 66.2077 C 63.3594 66.2077 63.6674 66.5139 63.6674 66.88 C 63.6674 67.056 63.5952 67.2303 63.4773 67.3482 L 68.8083 70.2117 C 68.6921 70.0357 68.6323 69.8315 68.6323 69.6133 C 68.6323 68.985 69.1427 68.4746 69.771 68.4746 C 70.3993 68.4746 70.9097 68.985 70.9097 69.6133 C 70.9097 70.2416 70.4275 70.7221 69.815 70.752 L 77.7895 75.0305 C 77.8915 74.5043 78.3439 74.1241 78.9 74.1241 C 79.5283 74.1241 80.0387 74.6345 80.0387 75.2628 C 80.0387 75.5691 79.9226 75.8471 79.7184 76.0513 L 87.9569 80.446 L 92.6596 78.2988 C 92.4695 78.0946 92.3533 77.8165 92.3533 77.5244 C 92.3533 76.8961 92.8637 76.3857 93.492 76.3857 C 94.0763 76.3857 94.5727 76.838 94.6307 77.4082 L 112.259 69.3757 C 112.245 69.3176 112.229 69.2595 112.229 69.1997 C 112.229 68.8354 112.535 68.5274 112.901 68.5274 C 113.135 68.5274 113.339 68.6594 113.456 68.8336 L 117.356 67.0525 C 116.859 66.9363 116.479 66.4823 116.479 65.9419 C 116.479 65.3136 116.99 64.8032 117.618 64.8032 C 118.246 64.8032 118.757 65.3136 118.757 65.9419 C 118.757 66.132 118.713 66.3063 118.625 66.4682 L 122.305 64.7892 C 121.954 64.5991 121.706 64.2189 121.706 63.7807 C 121.706 63.6047 121.736 63.4445 121.808 63.2985 L 119.121 61.9257 L 122.945 60.1745 L 122.947 60.1762 Z M 100.106 72.2532 C 100.106 71.6249 99.5956 71.1145 98.9673 71.1145 C 98.339 71.1145 97.8286 71.6249 97.8286 72.2532 C 97.8286 72.8816 98.339 73.392 98.9673 73.392 C 99.5956 73.392 100.106 72.8816 100.106 72.2532 Z M 107.964 70.356 C 107.964 69.7259 107.454 69.2173 106.826 69.2173 C 106.197 69.2173 105.687 69.7277 105.687 70.356 C 105.687 70.9843 106.197 71.4947 106.826 71.4947 C 107.454 71.4947 107.964 70.9843 107.964 70.356 Z M 112.885 66.1936 C 112.885 65.5653 112.375 65.0549 111.747 65.0549 C 111.118 65.0549 110.608 65.5653 110.608 66.1936 C 110.608 66.8219 111.118 67.3323 111.747 67.3323 C 112.375 67.3323 112.885 66.8219 112.885 66.1936 Z M 86.4503 76.4015 C 86.4503 75.7732 85.9399 75.2628 85.3116 75.2628 C 84.6833 75.2628 84.1729 75.7732 84.1729 76.4015 C 84.1729 77.0298 84.6833 77.5402 85.3116 77.5402 C 85.9399 77.5402 86.4503 77.0298 86.4503 76.4015 Z M 62.1626 63.2421 C 62.4688 63.2421 62.761 63.126 62.9651 62.9218 L 61.038 61.8852 C 61.0239 61.9573 61.0239 62.0313 61.0239 62.1052 C 61.0239 62.7335 61.5343 63.2439 62.1626 63.2439 L 62.1626 63.2421 Z M 76.0823 71.2008 C 76.5504 71.2008 76.9588 70.9227 77.133 70.5144 L 75.1178 69.4338 C 75.0017 69.6098 74.9418 69.828 74.9418 70.0462 C 74.9418 70.6886 75.4522 71.2008 76.0805 71.2008 L 76.0823 71.2008 Z M 65.3041 65.6955 C 65.3041 66.3239 65.8145 66.8343 66.4429 66.8343 C 67.0712 66.8343 67.5816 66.3239 67.5816 65.6955 C 67.5816 65.5794 67.5675 65.4756 67.5376 65.3594 L 66.1067 64.5991 C 65.6403 64.7311 65.3041 65.1676 65.3041 65.6938 L 65.3041 65.6955 Z M 131.157 54.5971 L 87.795 74.3582 L 44.5504 51.1493 L 52.0867 47.8933 L 55.4166 49.6744 L 55.8108 49.8944 L 57.5638 50.829 L 59.0527 55.1673 L 62.5146 57.0224 L 61.0397 52.684 L 63.1869 53.8385 L 64.6618 58.1769 L 68.2398 60.1041 L 66.7649 55.7657 L 68.9121 56.9203 L 70.387 61.2586 L 73.7609 63.0697 L 72.286 58.7313 L 74.4332 59.8858 L 75.894 64.2084 L 79.472 66.1355 L 77.9971 61.7972 L 80.1443 62.9517 L 81.6192 67.2901 L 85.0371 69.087 L 83.5622 64.7487 L 85.7094 65.9032 L 87.1843 70.2398 L 87.9146 70.6341 L 90.0178 69.6696 L 88.8193 66.1637 L 90.3381 65.4773 L 91.5367 68.9832 L 94.1221 67.8146 L 92.9235 64.3087 L 94.4424 63.6223 L 95.641 67.1282 L 98.5326 65.8135 L 97.3341 62.3076 L 98.8529 61.6212 L 100.051 65.1271 L 102.579 63.9725 L 101.38 60.4666 L 102.899 59.7802 L 104.098 63.2861 L 107.091 61.9274 L 105.893 58.4215 L 107.412 57.7352 L 108.61 61.241 L 111.502 59.9263 L 110.303 56.4204 L 111.822 55.7341 L 113.021 59.2399 L 115.548 58.0854 L 114.35 54.5795 L 115.868 53.8931 L 117.067 57.399 L 119.959 56.0843 L 118.76 52.5784 L 119.402 52.2862 L 120.279 51.892 L 123.245 50.5333 L 131.159 54.5936 L 131.157 54.5971 Z M 52.1588 51.4855 L 56.8914 54.0269 L 55.5327 50.0247 L 52.1588 51.4855 L 52.1588 51.4855 Z M 121.488 55.3997 L 123.591 54.4352 L 120.642 52.9163 L 121.488 55.3997 Z M 96.0194 74.3723 C 96.0194 73.4764 94.6765 73.4764 94.6765 74.3723 C 94.6765 75.2681 96.0194 75.2681 96.0194 74.3723 Z M 90.2061 77.7461 C 90.2061 76.8503 88.8633 76.8503 88.8633 77.7461 C 88.8633 78.642 90.2061 78.642 90.2061 77.7461 Z M 73.5708 70.7344 C 73.5708 69.8385 72.2279 69.8385 72.2279 70.7344 C 72.2279 71.6302 73.5708 71.6302 73.5708 70.7344 Z M 78.6835 72.2532 C 78.6835 71.3574 77.3407 71.3574 77.3407 72.2532 C 77.3407 73.1491 78.6835 73.1491 78.6835 72.2532 Z M 60.0911 63.6504 C 60.0911 62.7546 58.7482 62.7546 58.7482 63.6504 C 58.7482 64.5463 60.0911 64.5463 60.0911 63.6504 Z M 103.834 72.079 C 103.834 71.1832 102.491 71.1832 102.491 72.079 C 102.491 72.9748 103.834 72.9748 103.834 72.079 Z M 109.327 67.5946 C 109.327 66.6987 107.984 66.6987 107.984 67.5946 C 107.984 68.4904 109.327 68.4904 109.327 67.5946 Z M 82.7597 74.1083 C 82.7597 73.2124 81.4168 73.2124 81.4168 74.1083 C 81.4168 75.0041 82.7597 75.0041 82.7597 74.1083 Z M 112.181 36.156 C 112.09 36.3795 111.993 36.6013 111.896 36.8213 C 111.864 36.8934 111.831 36.9656 111.798 37.0378 C 111.476 37.747 111.122 38.4387 110.736 39.1128 L 123.232 45.1495 L 87.6102 61.315 L 51.8579 42.1241 L 64.8043 36.4218 C 64.7955 36.4024 64.7885 36.3813 64.7797 36.3619 C 64.653 36.061 64.5333 35.7547 64.4189 35.4467 C 64.3626 35.2971 64.308 35.1458 64.2534 34.9927 C 64.2024 34.8483 64.1531 34.7023 64.1056 34.5562 C 63.9595 34.1179 63.824 33.6762 63.7008 33.2274 L 63.7008 33.2239 L 44.2336 41.802 L 54.0332 47.0591 L 57.7556 49.0602 L 60.2389 50.4031 L 62.3861 51.5576 L 65.9641 53.4848 L 68.1113 54.6393 L 71.4852 56.4504 L 73.6324 57.6049 L 77.2104 59.5321 L 79.3576 60.6866 L 82.7913 62.5276 L 84.9385 63.6821 L 87.4799 65.0408 L 88.2983 64.6607 L 89.8172 63.9743 L 92.3868 62.8057 L 93.9056 62.1193 L 96.7973 60.8046 L 98.3161 60.1182 L 100.843 58.9636 L 102.362 58.2772 L 105.356 56.9185 L 106.875 56.2321 L 109.767 54.9174 L 111.285 54.231 L 113.813 53.0765 L 115.332 52.3901 L 117.523 51.3975 L 118.223 51.0771 L 119.742 50.3907 L 121.363 49.6463 L 130.842 45.3238 L 112.183 36.156 L 112.181 36.156 Z" stroke-linecap="round" />
</g>
		<g transform="matrix(1 0 0 1 -82.5 37.28)"  >
<path style="stroke: none; stroke-width: 1; stroke-dasharray: none; stroke-linecap: butt; stroke-dashoffset: 0; stroke-linejoin: miter; stroke-miterlimit: 4; fill: rgb(255,255,255); fill-rule: nonzero; opacity: 1;" vector-effect="non-scaling-stroke"  transform=" translate(-5.5, -108.78)" d="M 10.9963 102.472 L 10.9963 115.038 C 10.9963 118.085 8.52177 120.561 5.52276 120.561 C 2.52375 120.561 -0.0000610352 118.085 -0.0000610352 115.038 L -0.0000610352 102.472 C -0.0000610352 99.4732 2.47447 96.9987 5.52276 96.9987 C 8.57105 96.9987 10.9963 99.4732 10.9963 102.472 Z M 7.94978 102.472 C 7.94978 101.14 6.85507 100.045 5.52276 100.045 C 4.19046 100.045 3.04823 101.14 3.04823 102.472 L 3.04823 115.038 C 3.04823 116.418 4.14294 117.515 5.52276 117.515 C 6.90259 117.515 7.94978 116.42 7.94978 115.038 L 7.94978 102.472 Z" stroke-linecap="round" />
</g>
		<g transform="matrix(1 0 0 1 -67.58 37.3)"  >
<path style="stroke: none; stroke-width: 1; stroke-dasharray: none; stroke-linecap: butt; stroke-dashoffset: 0; stroke-linejoin: miter; stroke-miterlimit: 4; fill: rgb(255,255,255); fill-rule: nonzero; opacity: 1;" vector-effect="non-scaling-stroke"  transform=" translate(-20.42, -108.8)" d="M 25.8946 97.8082 L 25.8946 112.613 C 25.8946 113.708 25.5619 114.755 24.9899 115.66 L 22.4186 120.183 C 22.276 120.42 22.0384 120.563 21.7516 120.563 L 19.0852 120.563 C 18.8001 120.563 18.5625 120.42 18.4182 120.183 L 15.8468 115.66 C 15.2748 114.755 14.9422 113.708 14.9422 112.613 L 14.9422 97.8082 C 14.9422 97.3788 15.2748 97.0461 15.7043 97.0461 L 17.2284 97.0461 C 17.6561 97.0461 17.9905 97.3788 17.9905 97.8082 L 17.9905 112.613 C 17.9905 112.898 18.038 113.138 18.133 113.375 L 20.4175 117.469 L 22.7495 113.375 C 22.797 113.138 22.8445 112.898 22.8445 112.613 L 22.8445 97.8082 C 22.8445 97.3788 23.2247 97.0461 23.6066 97.0461 L 25.1307 97.0461 C 25.5584 97.0461 25.8928 97.3788 25.8928 97.8082 L 25.8946 97.8082 Z" stroke-linecap="round" />
</g>
		<g transform="matrix(1 0 0 1 -54.13 37.28)"  >
<path style="stroke: none; stroke-width: 1; stroke-dasharray: none; stroke-linecap: butt; stroke-dashoffset: 0; stroke-linejoin: miter; stroke-miterlimit: 4; fill: rgb(255,255,255); fill-rule: nonzero; opacity: 1;" vector-effect="non-scaling-stroke"  transform=" translate(-33.87, -108.78)" d="M 32.9397 100.045 L 32.9397 107.233 L 37.0809 107.233 C 37.5086 107.233 37.843 107.566 37.843 107.995 L 37.843 109.519 C 37.843 109.949 37.5104 110.281 37.0809 110.281 L 32.9397 110.281 L 32.9397 117.516 L 37.0809 117.516 C 37.5086 117.516 37.843 117.849 37.843 118.279 L 37.843 119.803 C 37.843 120.23 37.5104 120.565 37.0809 120.565 L 31.4155 120.565 C 30.5584 120.565 29.8914 119.85 29.8914 119.041 L 29.8914 98.5245 C 29.8914 97.6674 30.5584 97.0004 31.4155 97.0004 L 37.0809 97.0004 C 37.5086 97.0004 37.843 97.333 37.843 97.7624 L 37.843 99.2866 C 37.843 99.7143 37.5104 100.049 37.0809 100.049 L 32.9397 100.049 L 32.9397 100.045 Z" stroke-linecap="round" />
</g>
		<g transform="matrix(1 0 0 1 -40.97 37.28)"  >
<path style="stroke: none; stroke-width: 1; stroke-dasharray: none; stroke-linecap: butt; stroke-dashoffset: 0; stroke-linejoin: miter; stroke-miterlimit: 4; fill: rgb(255,255,255); fill-rule: nonzero; opacity: 1;" vector-effect="non-scaling-stroke"  transform=" translate(-47.03, -108.78)" d="M 52.5036 104.758 C 52.5036 106.328 51.8841 107.757 50.8369 108.757 C 51.8841 109.757 52.5036 111.137 52.5036 112.708 L 52.5036 119.801 C 52.5036 120.181 52.171 120.563 51.7416 120.563 L 50.2174 120.563 C 49.7898 120.563 49.4554 120.183 49.4554 119.801 L 49.4554 112.708 C 49.4554 111.376 48.3606 110.281 47.0283 110.281 L 44.6013 110.281 L 44.6013 119.803 C 44.6013 120.183 44.2212 120.565 43.8393 120.565 L 42.3151 120.565 C 41.8874 120.565 41.553 120.185 41.553 119.803 L 41.553 98.5245 C 41.553 97.6674 42.2201 97.0004 43.0772 97.0004 L 47.0283 97.0004 C 50.0749 97.0004 52.5019 99.4749 52.5019 102.474 L 52.5019 104.758 L 52.5036 104.758 Z M 49.4571 102.474 C 49.4571 101.142 48.3624 100.047 47.0301 100.047 L 44.6031 100.047 L 44.6031 107.235 L 47.0301 107.235 C 48.3624 107.235 49.4571 106.14 49.4571 104.76 L 49.4571 102.476 L 49.4571 102.474 Z" stroke-linecap="round" />
</g>
		<g transform="matrix(1 0 0 1 -29.02 37.28)"  >
<path style="stroke: none; stroke-width: 1; stroke-dasharray: none; stroke-linecap: butt; stroke-dashoffset: 0; stroke-linejoin: miter; stroke-miterlimit: 4; fill: rgb(255,255,255); fill-rule: nonzero; opacity: 1;" vector-effect="non-scaling-stroke"  transform=" translate(-58.98, -108.78)" d="M 63.4032 97.7607 L 63.4032 99.2849 C 63.4032 99.7125 63.0706 100.047 62.6411 100.047 L 60.4992 100.047 L 60.4992 119.803 C 60.4992 120.183 60.1666 120.565 59.7372 120.565 L 58.213 120.565 C 57.7854 120.565 57.451 120.185 57.451 119.803 L 57.451 100.047 L 55.3091 100.047 C 54.8814 100.047 54.547 99.7143 54.547 99.2849 L 54.547 97.7607 C 54.547 97.3313 54.8796 96.9987 55.3091 96.9987 L 62.6394 96.9987 C 63.0671 96.9987 63.4015 97.3313 63.4015 97.7607 L 63.4032 97.7607 Z" stroke-linecap="round" />
</g>
		<g transform="matrix(1 0 0 1 -15.62 37.28)"  >
<path style="stroke: none; stroke-width: 1; stroke-dasharray: none; stroke-linecap: butt; stroke-dashoffset: 0; stroke-linejoin: miter; stroke-miterlimit: 4; fill: rgb(255,255,255); fill-rule: nonzero; opacity: 1;" vector-effect="non-scaling-stroke"  transform=" translate(-72.38, -108.78)" d="M 77.8739 97.7607 L 77.8739 115.04 C 77.8739 118.087 75.3994 120.563 72.4004 120.563 C 69.4013 120.563 66.8775 118.087 66.8775 115.04 L 66.8775 97.7607 C 66.8775 97.3313 67.2577 96.9987 67.6396 96.9987 L 69.1638 96.9987 C 69.5914 96.9987 69.9258 97.3313 69.9258 97.7607 L 69.9258 115.04 C 69.9258 116.42 71.0205 117.517 72.4004 117.517 C 73.7802 117.517 74.8274 116.422 74.8274 115.04 L 74.8274 97.7607 C 74.8274 97.3313 75.16 96.9987 75.5894 96.9987 L 77.1136 96.9987 C 77.5413 96.9987 77.8757 97.3313 77.8757 97.7607 L 77.8739 97.7607 Z" stroke-linecap="round" />
</g>
		<g transform="matrix(1 0 0 1 -0.94 37.28)"  >
<path style="stroke: none; stroke-width: 1; stroke-dasharray: none; stroke-linecap: butt; stroke-dashoffset: 0; stroke-linejoin: miter; stroke-miterlimit: 4; fill: rgb(255,255,255); fill-rule: nonzero; opacity: 1;" vector-effect="non-scaling-stroke"  transform=" translate(-87.06, -108.78)" d="M 92.5346 104.758 C 92.5346 106.328 91.915 107.757 90.8678 108.757 C 91.915 109.757 92.5346 111.137 92.5346 112.708 L 92.5346 119.801 C 92.5346 120.181 92.2019 120.563 91.7725 120.563 L 90.2483 120.563 C 89.8207 120.563 89.4863 120.183 89.4863 119.801 L 89.4863 112.708 C 89.4863 111.376 88.3916 110.281 87.0575 110.281 L 84.6305 110.281 L 84.6305 119.803 C 84.6305 120.183 84.2503 120.565 83.8684 120.565 L 82.3443 120.565 C 81.9166 120.565 81.5822 120.185 81.5822 119.803 L 81.5822 98.5245 C 81.5822 97.6674 82.2492 97.0004 83.1063 97.0004 L 87.0575 97.0004 C 90.104 97.0004 92.5328 99.4749 92.5328 102.474 L 92.5328 104.758 L 92.5346 104.758 Z M 89.488 102.474 C 89.488 101.142 88.3933 100.047 87.0592 100.047 L 84.6322 100.047 L 84.6322 107.235 L 87.0592 107.235 C 88.3916 107.235 89.488 106.14 89.488 104.76 L 89.488 102.476 L 89.488 102.474 Z" stroke-linecap="round" />
</g>
		<g transform="matrix(1 0 0 1 12.46 37.28)"  >
<path style="stroke: none; stroke-width: 1; stroke-dasharray: none; stroke-linecap: butt; stroke-dashoffset: 0; stroke-linejoin: miter; stroke-miterlimit: 4; fill: rgb(255,255,255); fill-rule: nonzero; opacity: 1;" vector-effect="non-scaling-stroke"  transform=" translate(-100.46, -108.78)" d="M 99.5322 100.045 L 99.5322 107.233 L 103.673 107.233 C 104.101 107.233 104.436 107.566 104.436 107.995 L 104.436 109.519 C 104.436 109.949 104.103 110.281 103.673 110.281 L 99.5322 110.281 L 99.5322 117.516 L 103.673 117.516 C 104.101 117.516 104.436 117.849 104.436 118.279 L 104.436 119.803 C 104.436 120.23 104.103 120.565 103.673 120.565 L 98.0081 120.565 C 97.1509 120.565 96.4839 119.85 96.4839 119.041 L 96.4839 98.5245 C 96.4839 97.6674 97.1509 97.0004 98.0081 97.0004 L 103.673 97.0004 C 104.101 97.0004 104.436 97.333 104.436 97.7624 L 104.436 99.2866 C 104.436 99.7143 104.103 100.049 103.673 100.049 L 99.5322 100.049 L 99.5322 100.045 Z" stroke-linecap="round" />
</g>
		<g transform="matrix(1 0 0 1 35.21 36.99)"  >
<path style="stroke: none; stroke-width: 1; stroke-dasharray: none; stroke-linecap: butt; stroke-dashoffset: 0; stroke-linejoin: miter; stroke-miterlimit: 4; fill: rgb(255,255,255); fill-rule: nonzero; opacity: 1;" vector-effect="non-scaling-stroke"  transform=" translate(-123.21, -108.49)" d="M 132.683 102.178 L 132.683 119.505 C 132.683 119.885 132.351 120.267 131.921 120.267 L 130.397 120.267 C 129.969 120.267 129.635 119.887 129.635 119.505 L 129.635 102.178 C 129.635 100.846 128.54 99.7512 127.16 99.7512 C 125.781 99.7512 124.733 100.846 124.733 102.178 L 124.733 119.505 C 124.733 119.885 124.401 120.267 123.971 120.267 L 122.447 120.267 C 122.02 120.267 121.685 119.887 121.685 119.505 L 121.685 102.178 C 121.685 100.846 120.59 99.7512 119.258 99.7512 C 117.926 99.7512 116.784 100.846 116.784 102.178 L 116.784 119.505 C 116.784 119.885 116.451 120.267 116.022 120.267 L 114.497 120.267 C 114.117 120.267 113.735 119.887 113.735 119.505 L 113.735 102.178 C 113.735 99.1792 116.21 96.7047 119.258 96.7047 C 120.782 96.7047 122.21 97.37 123.209 98.4189 C 124.209 97.3717 125.636 96.7047 127.16 96.7047 C 130.207 96.7047 132.683 99.1792 132.683 102.178 L 132.683 102.178 Z" stroke-linecap="round" />
</g>
		<g transform="matrix(1 0 0 1 54.13 37.01)"  >
<path style="stroke: none; stroke-width: 1; stroke-dasharray: none; stroke-linecap: butt; stroke-dashoffset: 0; stroke-linejoin: miter; stroke-miterlimit: 4; fill: rgb(255,255,255); fill-rule: nonzero; opacity: 1;" vector-effect="non-scaling-stroke"  transform=" translate(-142.13, -108.51)" d="M 147.629 102.226 L 147.629 119.505 C 147.629 119.933 147.296 120.267 146.867 120.267 L 145.343 120.267 C 144.915 120.267 144.581 119.935 144.581 119.505 L 144.581 110.031 L 139.677 110.031 L 139.677 119.505 C 139.677 119.933 139.345 120.267 138.915 120.267 L 137.391 120.267 C 136.963 120.267 136.629 119.935 136.629 119.505 L 136.629 102.226 C 136.629 99.2267 139.104 96.7522 142.152 96.7522 C 145.2 96.7522 147.625 99.2267 147.625 102.226 L 147.629 102.226 Z M 144.582 102.226 C 144.582 100.893 143.488 99.7987 142.155 99.7987 C 140.823 99.7987 139.681 100.893 139.681 102.226 L 139.681 106.986 L 144.584 106.986 L 144.584 102.226 L 144.582 102.226 Z" stroke-linecap="round" />
</g>
		<g transform="matrix(1 0 0 1 69.08 36.99)"  >
<path style="stroke: none; stroke-width: 1; stroke-dasharray: none; stroke-linecap: butt; stroke-dashoffset: 0; stroke-linejoin: miter; stroke-miterlimit: 4; fill: rgb(255,255,255); fill-rule: nonzero; opacity: 1;" vector-effect="non-scaling-stroke"  transform=" translate(-157.08, -108.48)" d="M 162.575 102.178 L 162.575 104.463 C 162.575 107.509 160.1 109.984 157.101 109.984 L 154.627 109.984 L 154.627 119.505 C 154.627 119.885 154.294 120.267 153.865 120.267 L 152.34 120.267 C 151.96 120.267 151.578 119.887 151.578 119.505 L 151.578 97.465 C 151.578 97.0355 151.959 96.7029 152.34 96.7029 L 157.101 96.7029 C 160.1 96.7029 162.575 99.1774 162.575 102.176 L 162.575 102.178 Z M 159.528 102.178 C 159.528 100.846 158.434 99.7512 157.101 99.7512 L 154.627 99.7512 L 154.627 106.939 L 157.101 106.939 C 158.434 106.939 159.528 105.844 159.528 104.464 L 159.528 102.18 L 159.528 102.178 Z" stroke-linecap="round" />
</g>
		<g transform="matrix(1 0 0 1 82.53 36.99)"  >
<path style="stroke: none; stroke-width: 1; stroke-dasharray: none; stroke-linecap: butt; stroke-dashoffset: 0; stroke-linejoin: miter; stroke-miterlimit: 4; fill: rgb(255,255,255); fill-rule: nonzero; opacity: 1;" vector-effect="non-scaling-stroke"  transform=" translate(-170.53, -108.49)" d="M 172.952 103.796 L 172.952 102.178 C 172.952 100.846 171.857 99.7512 170.525 99.7512 C 169.192 99.7512 168.098 100.846 168.098 102.178 C 168.098 102.591 168.145 102.861 168.24 102.988 L 174.858 111.747 C 175.619 112.763 176 113.779 176 114.794 C 176 117.793 173.525 120.267 170.526 120.267 C 167.527 120.267 165.051 117.791 165.051 114.794 L 165.051 113.175 C 165.051 112.747 165.384 112.413 165.813 112.413 L 167.337 112.413 C 167.765 112.413 168.099 112.745 168.099 113.175 L 168.099 114.794 C 168.099 116.126 169.194 117.221 170.526 117.221 C 171.859 117.221 172.953 116.126 172.953 114.794 C 172.953 114.381 172.906 114.111 172.811 113.984 L 166.193 105.225 C 165.432 104.209 165.051 103.193 165.051 102.178 C 165.051 99.1792 167.526 96.7047 170.526 96.7047 C 173.527 96.7047 176 99.1792 176 102.178 L 176 103.796 C 176 104.223 175.667 104.558 175.238 104.558 L 173.714 104.558 C 173.286 104.558 172.952 104.225 172.952 103.796 Z" stroke-linecap="round" />
</g>
		<g transform="matrix(1 0 0 1 -60.99 64.64)"  >
<path style="stroke: none; stroke-width: 1; stroke-dasharray: none; stroke-linecap: butt; stroke-dashoffset: 0; stroke-linejoin: miter; stroke-miterlimit: 4; fill: rgb(255,255,255); fill-rule: nonzero; opacity: 1;" vector-effect="non-scaling-stroke"  transform=" translate(-27.01, -136.14)" d="M 23.0981 142.1 L 23.0981 130.171 L 30.9142 130.171 L 30.9142 131.494 L 24.5835 131.494 L 24.5835 135.34 L 30.7892 135.34 L 30.7892 136.663 L 24.5835 136.663 L 24.5835 142.1 L 23.0999 142.1 L 23.0981 142.1 Z" stroke-linecap="round" />
</g>
		<g transform="matrix(1 0 0 1 -47.31 64.65)"  >
<path style="stroke: none; stroke-width: 1; stroke-dasharray: none; stroke-linecap: butt; stroke-dashoffset: 0; stroke-linejoin: miter; stroke-miterlimit: 4; fill: rgb(255,255,255); fill-rule: nonzero; opacity: 1;" vector-effect="non-scaling-stroke"  transform=" translate(-40.69, -136.15)" d="M 34.7597 136.146 C 34.7597 132.622 37.1568 129.975 40.6785 129.975 C 44.2003 129.975 46.6167 132.622 46.6167 136.146 C 46.6167 139.669 44.202 142.316 40.6785 142.316 C 37.155 142.316 34.7597 139.669 34.7597 136.146 L 34.7597 136.146 Z M 45.0785 136.146 C 45.0785 133.356 43.3431 131.299 40.6785 131.299 C 38.0139 131.299 36.2962 133.356 36.2962 136.146 C 36.2962 138.935 37.9946 140.993 40.6785 140.993 C 43.3625 140.993 45.0785 138.918 45.0785 136.146 Z" stroke-linecap="round" />
</g>
		<g transform="matrix(1 0 0 1 -31.91 64.74)"  >
<path style="stroke: none; stroke-width: 1; stroke-dasharray: none; stroke-linecap: butt; stroke-dashoffset: 0; stroke-linejoin: miter; stroke-miterlimit: 4; fill: rgb(255,255,255); fill-rule: nonzero; opacity: 1;" vector-effect="non-scaling-stroke"  transform=" translate(-56.09, -136.24)" d="M 51.2155 137.469 L 51.2155 130.172 L 52.7185 130.172 L 52.7185 137.434 C 52.7185 139.616 53.8801 140.993 56.0801 140.993 C 58.2801 140.993 59.461 139.616 59.461 137.434 L 59.461 130.172 L 60.9641 130.172 L 60.9641 137.452 C 60.9641 140.421 59.3185 142.316 56.0819 142.316 C 52.8453 142.316 51.2173 140.403 51.2173 137.469 L 51.2155 137.469 Z" stroke-linecap="round" />
</g>
		<g transform="matrix(1 0 0 1 -17.02 64.64)"  >
<path style="stroke: none; stroke-width: 1; stroke-dasharray: none; stroke-linecap: butt; stroke-dashoffset: 0; stroke-linejoin: miter; stroke-miterlimit: 4; fill: rgb(255,255,255); fill-rule: nonzero; opacity: 1;" vector-effect="non-scaling-stroke"  transform=" translate(-70.98, -136.14)" d="M 74.4842 142.1 L 67.527 132.585 L 67.527 142.1 L 66.0434 142.1 L 66.0434 130.171 L 67.564 130.171 L 74.4314 139.488 L 74.4314 130.171 L 75.9151 130.171 L 75.9151 142.1 L 74.4842 142.1 L 74.4842 142.1 Z" stroke-linecap="round" />
</g>
		<g transform="matrix(1 0 0 1 -1.91 64.64)"  >
<path style="stroke: none; stroke-width: 1; stroke-dasharray: none; stroke-linecap: butt; stroke-dashoffset: 0; stroke-linejoin: miter; stroke-miterlimit: 4; fill: rgb(255,255,255); fill-rule: nonzero; opacity: 1;" vector-effect="non-scaling-stroke"  transform=" translate(-86.09, -136.14)" d="M 80.998 142.1 L 80.998 130.171 L 85.0759 130.171 C 88.7965 130.171 91.1919 132.763 91.1919 136.144 C 91.1919 139.525 88.7948 142.1 85.0759 142.1 L 80.998 142.1 L 80.998 142.1 Z M 89.6536 136.144 C 89.6536 133.569 88.0257 131.494 85.0759 131.494 L 82.4835 131.494 L 82.4835 140.776 L 85.0759 140.776 C 87.9729 140.776 89.6536 138.701 89.6536 136.144 Z" stroke-linecap="round" />
</g>
		<g transform="matrix(1 0 0 1 11.63 64.64)"  >
<path style="stroke: none; stroke-width: 1; stroke-dasharray: none; stroke-linecap: butt; stroke-dashoffset: 0; stroke-linejoin: miter; stroke-miterlimit: 4; fill: rgb(255,255,255); fill-rule: nonzero; opacity: 1;" vector-effect="non-scaling-stroke"  transform=" translate(-99.63, -136.14)" d="M 103.658 142.1 L 102.602 139.435 L 96.6636 139.435 L 95.6076 142.1 L 93.9092 142.1 L 98.7193 130.171 L 100.562 130.171 L 105.354 142.1 L 103.656 142.1 L 103.658 142.1 Z M 99.6345 131.691 L 97.1124 138.129 L 102.174 138.129 L 99.6345 131.691 Z" stroke-linecap="round" />
</g>
		<g transform="matrix(1 0 0 1 23.71 64.64)"  >
<path style="stroke: none; stroke-width: 1; stroke-dasharray: none; stroke-linecap: butt; stroke-dashoffset: 0; stroke-linejoin: miter; stroke-miterlimit: 4; fill: rgb(255,255,255); fill-rule: nonzero; opacity: 1;" vector-effect="non-scaling-stroke"  transform=" translate(-111.71, -136.14)" d="M 110.956 142.1 L 110.956 131.494 L 107.183 131.494 L 107.183 130.171 L 116.233 130.171 L 116.233 131.494 L 112.442 131.494 L 112.442 142.1 L 110.958 142.1 L 110.956 142.1 Z" stroke-linecap="round" />
</g>
		<g transform="matrix(1 0 0 1 33.23 64.64)"  >
<path style="stroke: none; stroke-width: 1; stroke-dasharray: none; stroke-linecap: butt; stroke-dashoffset: 0; stroke-linejoin: miter; stroke-miterlimit: 4; fill: rgb(255,255,255); fill-rule: nonzero; opacity: 1;" vector-effect="non-scaling-stroke"  transform=" translate(-121.23, -136.14)" d="M 120.492 142.1 L 120.492 130.171 L 121.976 130.171 L 121.976 142.1 L 120.492 142.1 Z" stroke-linecap="round" />
</g>
		<g transform="matrix(1 0 0 1 44.5 64.65)"  >
<path style="stroke: none; stroke-width: 1; stroke-dasharray: none; stroke-linecap: butt; stroke-dashoffset: 0; stroke-linejoin: miter; stroke-miterlimit: 4; fill: rgb(255,255,255); fill-rule: nonzero; opacity: 1;" vector-effect="non-scaling-stroke"  transform=" translate(-132.5, -136.15)" d="M 126.573 136.146 C 126.573 132.622 128.97 129.975 132.491 129.975 C 136.013 129.975 138.43 132.622 138.43 136.146 C 138.43 139.669 136.015 142.316 132.491 142.316 C 128.968 142.316 126.573 139.669 126.573 136.146 L 126.573 136.146 Z M 136.891 136.146 C 136.891 133.356 135.156 131.299 132.491 131.299 C 129.827 131.299 128.109 133.356 128.109 136.146 C 128.109 138.935 129.808 140.993 132.491 140.993 C 135.175 140.993 136.891 138.918 136.891 136.146 Z" stroke-linecap="round" />
</g>
		<g transform="matrix(1 0 0 1 59.96 64.64)"  >
<path style="stroke: none; stroke-width: 1; stroke-dasharray: none; stroke-linecap: butt; stroke-dashoffset: 0; stroke-linejoin: miter; stroke-miterlimit: 4; fill: rgb(255,255,255); fill-rule: nonzero; opacity: 1;" vector-effect="non-scaling-stroke"  transform=" translate(-147.96, -136.14)" d="M 151.469 142.1 L 144.512 132.585 L 144.512 142.1 L 143.028 142.1 L 143.028 130.171 L 144.549 130.171 L 151.417 139.488 L 151.417 130.171 L 152.9 130.171 L 152.9 142.1 L 151.469 142.1 Z" stroke-linecap="round" />
</g>
</g>
</g>
</svg>