<svg xmlns="http://www.w3.org/2000/svg" xmlns:xlink="http://www.w3.org/1999/xlink" width="1080" zoomAndPan="magnify" viewBox="0 0 810 809.999993" height="1080" preserveAspectRatio="xMidYMid meet" version="1.0"><path fill="#50abf1" d="M 366.035156 489.433594 C 340.039062 461.707031 339.265625 460.511719 343.941406 455.265625 C 351.347656 446.957031 667.28125 157.878906 671.734375 155.226562 C 675.660156 152.964844 714.382812 171.65625 722.855469 179.902344 C 726.097656 183.0625 700.929688 209.957031 563.621094 350.003906 C 473.921875 441.519531 398.769531 516.820312 396.757812 517.242188 C 394.671875 517.703125 380.84375 505.152344 366.03125 489.347656 Z M 1762.234375 486.570312 C 1759.757812 484.089844 1758.785156 468.667969 1758.785156 431.808594 C 1758.785156 403.585938 1758.042969 380.492188 1757.136719 380.492188 C 1756.226562 380.492188 1748.996094 386.164062 1741.074219 393.09375 C 1722.183594 409.613281 1705.65625 415.007812 1677.953125 413.683594 C 1616.253906 410.726562 1579.371094 357.398438 1579.371094 271.136719 C 1579.371094 217.246094 1592.101562 179.929688 1619.265625 154.238281 C 1647.675781 127.371094 1687.683594 120.261719 1720.921875 136.179688 C 1730.175781 140.613281 1741.457031 148.175781 1745.992188 153 C 1750.523438 157.820312 1755.1875 161.765625 1756.359375 161.765625 C 1757.527344 161.765625 1758.871094 155.769531 1759.339844 148.441406 L 1760.195312 135.121094 L 1831.765625 133.550781 L 1830.320312 488.378906 L 1798.007812 489.164062 C 1775.257812 489.714844 1764.675781 488.925781 1762.25 486.5 Z M 1728.492188 345.082031 C 1768.234375 324.785156 1771.851562 230.410156 1733.984375 201.476562 C 1720.203125 190.964844 1696.425781 189.667969 1683.121094 198.710938 C 1663.539062 212.011719 1652.195312 238.425781 1652.195312 270.726562 C 1652.195312 329.738281 1688.757812 365.371094 1728.484375 345.074219 Z M 295.183594 415.761719 C 281.167969 401.675781 272.304688 390.613281 273.195312 388.3125 C 274.792969 384.148438 456.390625 237.394531 459.78125 237.5 C 463.964844 237.65625 506.703125 270.121094 506.703125 273.140625 C 506.703125 276.320312 324.148438 439.320312 320.542969 439.320312 C 319.480469 439.320312 308.054688 428.703125 295.140625 415.730469 Z M 2264.921875 412.664062 C 2240.941406 407.457031 2222.238281 396.628906 2203.761719 377.257812 C 2177.808594 350.0625 2166.011719 316.984375 2166.085938 271.664062 C 2166.191406 209.730469 2192.714844 161.125 2238.84375 138.445312 C 2256.027344 129.988281 2258.890625 129.464844 2288 129.464844 C 2315.691406 129.464844 2320.589844 130.253906 2335.007812 137.003906 C 2378.917969 157.574219 2406.066406 211.636719 2403.882812 274.144531 L 2403.0625 297.695312 L 2323.214844 298.441406 C 2279.300781 298.851562 2242.28125 300.277344 2240.945312 301.609375 C 2237.035156 305.519531 2250.046875 332.035156 2260.285156 341.023438 C 2282.652344 360.652344 2314.394531 359.410156 2344.617188 337.726562 L 2357.425781 328.539062 L 2368.511719 341.160156 C 2374.613281 348.101562 2382.953125 358.054688 2387.054688 363.277344 L 2394.5 372.777344 L 2381.945312 384.011719 C 2359.8125 403.832031 2323.722656 417.226562 2293.988281 416.644531 C 2287.640625 416.523438 2274.566406 414.710938 2264.917969 412.613281 Z M 2329.558594 247.96875 C 2333.84375 244.777344 2333.902344 243.101562 2330.234375 229.304688 C 2320.292969 191.945312 2286.289062 176.292969 2261.113281 197.476562 C 2251.175781 205.835938 2246.039062 215.1875 2241.519531 233.109375 C 2238.746094 244.132812 2238.839844 246.867188 2242.074219 248.910156 C 2248.378906 252.902344 2324.035156 252.085938 2329.558594 247.96875 Z M 1171.886719 410.226562 C 1134.558594 396.34375 1114.003906 354.980469 1122.132812 310.136719 C 1127.800781 278.894531 1141.777344 260.175781 1168.386719 248.210938 C 1187.332031 239.6875 1232.15625 237.558594 1254.703125 244.117188 C 1263.242188 246.597656 1270.839844 248.625 1271.59375 248.625 C 1275.246094 248.625 1276.109375 238.425781 1273.339844 227.992188 C 1269.875 214.921875 1262.15625 205.363281 1249.722656 198.738281 C 1237.125 192.03125 1205.671875 193.023438 1181.160156 200.898438 C 1169.628906 204.605469 1160.109375 206.296875 1158.847656 204.859375 C 1155.730469 201.320312 1141.734375 160.359375 1141.734375 154.785156 C 1141.734375 144.121094 1190.4375 130.589844 1229.9375 130.257812 C 1276.5625 129.878906 1306.90625 141.453125 1325.414062 166.664062 C 1344.613281 192.832031 1345.089844 196.285156 1345.089844 308.894531 L 1345.089844 409.839844 L 1313.074219 410.636719 C 1295.464844 411.078125 1279.933594 410.3125 1278.558594 408.945312 C 1277.1875 407.574219 1275.539062 402.308594 1274.898438 397.242188 C 1274.257812 392.183594 1273.109375 387.414062 1272.339844 386.648438 C 1271.574219 385.882812 1266.472656 389.183594 1260.996094 393.988281 C 1243.886719 409.003906 1234.972656 412.214844 1207.652344 413.203125 C 1190.871094 413.808594 1178.878906 412.800781 1171.882812 410.199219 Z M 1255.042969 354.4375 C 1269.601562 346.097656 1276.375 332.796875 1276.375 312.5625 C 1276.375 292.542969 1272.863281 290.136719 1241.316406 288.515625 C 1221.238281 287.484375 1217.84375 288.0625 1209.097656 294.019531 C 1195.6875 303.152344 1191.785156 311.699219 1193.035156 329.207031 C 1194.660156 351.960938 1204.550781 360.332031 1230.089844 360.578125 C 1239.660156 360.660156 1247.582031 358.71875 1255.042969 354.445312 Z M 1941.589844 410.511719 C 1926.113281 405.5625 1905.777344 385.035156 1898.496094 366.984375 C 1892.132812 351.238281 1892.03125 349.234375 1892.027344 242.988281 L 1892.023438 134.992188 L 1963.265625 133.421875 L 1964.109375 226.742188 C 1964.855469 309.746094 1965.5 321.066406 1969.917969 329.152344 C 1984.558594 355.945312 2022.902344 355.730469 2037.320312 328.792969 C 2043.257812 317.695312 2043.523438 313.785156 2044.394531 225.34375 L 2045.300781 133.425781 L 2116.417969 134.992188 L 2117.144531 269.269531 C 2117.679688 367.792969 2117.007812 404.609375 2114.625 407.472656 C 2112.117188 410.496094 2103.992188 411.203125 2078.835938 410.597656 L 2046.289062 409.808594 L 2045.410156 397.1875 C 2044.929688 390.246094 2043.480469 383.492188 2042.191406 382.191406 C 2040.90625 380.882812 2034.359375 385.167969 2027.648438 391.71875 C 2010.050781 408.886719 1997.230469 413.929688 1971.957031 413.667969 C 1960.390625 413.542969 1946.714844 412.097656 1941.585938 410.457031 Z M 2507.066406 411.40625 C 2490.476562 406.136719 2479.96875 396.992188 2472.105469 380.980469 L 2464.253906 364.996094 L 2462.417969 195.320312 L 2451.753906 195.320312 C 2436.316406 195.320312 2434.453125 191.449219 2435.386719 161.257812 C 2436.179688 135.617188 2436.351562 135.015625 2443.207031 134.25 C 2463.976562 131.925781 2462.84375 133.949219 2462.84375 99.085938 C 2462.84375 78.21875 2463.988281 66.304688 2466.207031 64.089844 C 2470.980469 59.320312 2531.796875 59.441406 2534.90625 64.230469 C 2536.152344 66.160156 2537.804688 82.25 2538.578125 99.980469 L 2539.980469 132.230469 L 2592.054688 133.84375 L 2591.257812 163.878906 L 2590.464844 193.914062 L 2538.570312 195.527344 L 2538.570312 266.929688 C 2538.570312 356.84375 2536.726562 353.6875 2584.855469 346.214844 C 2590.097656 345.398438 2590.519531 347.140625 2591.269531 372.796875 L 2592.074219 400.246094 L 2578.652344 406.371094 C 2564 413.058594 2521.671875 416.019531 2507.0625 411.378906 Z M 845.832031 407.847656 C 845.074219 405.875 844.785156 324.132812 845.183594 226.195312 L 845.910156 48.144531 L 921.648438 48.308594 C 992.644531 48.464844 998.519531 48.871094 1015.617188 54.777344 C 1065.488281 72.011719 1092.734375 108.636719 1096.21875 163.09375 C 1099.78125 218.722656 1074.53125 264.371094 1028.804688 284.972656 C 1004.964844 295.707031 986.71875 299.101562 952.710938 299.101562 C 932.089844 299.101562 922.84375 300.171875 920.652344 302.8125 C 918.722656 305.136719 917.28125 325.886719 916.800781 358.199219 L 916.035156 409.867188 L 881.625 410.652344 C 855.648438 411.25 846.871094 410.558594 845.832031 407.847656 Z M 988.949219 226.511719 C 1009.652344 216.960938 1021.304688 197.8125 1021.082031 173.710938 C 1020.726562 134.878906 1001.480469 117.921875 954.28125 114.859375 C 915.703125 112.359375 917.421875 109.714844 917.421875 171.378906 C 917.421875 199.730469 918.1875 224.921875 919.125 227.359375 C 921.75 234.199219 973.648438 233.558594 988.945312 226.496094 Z M 1405.796875 407.425781 C 1403.507812 404.667969 1402.824219 366.132812 1403.347656 269.328125 L 1404.078125 135.050781 L 1438.914062 134.257812 C 1464.898438 133.667969 1474.332031 134.378906 1476.039062 137.0625 C 1477.296875 139.039062 1478.339844 147.28125 1478.363281 155.375 C 1478.40625 169.789062 1482.082031 175.003906 1485.21875 165.121094 C 1487.417969 158.191406 1505.816406 139.726562 1515.527344 134.703125 C 1519.964844 132.410156 1529.839844 129.796875 1537.464844 128.890625 L 1551.339844 127.25 L 1551.339844 206.058594 L 1539.425781 208.042969 C 1519.589844 211.34375 1506.847656 217.835938 1496.519531 229.894531 C 1480.46875 248.632812 1478.414062 260.566406 1478.414062 334.839844 C 1478.414062 374.679688 1477.273438 402.542969 1475.511719 405.835938 C 1472.902344 410.710938 1469.375 411.261719 1440.789062 411.261719 C 1417.339844 411.261719 1408.136719 410.257812 1405.796875 407.4375 Z M 229.042969 348.042969 C 218.070312 335.792969 211.179688 325.894531 212.664062 324.515625 C 220.316406 317.371094 299.277344 262.632812 301.882812 262.664062 C 306.128906 262.714844 344.238281 295.378906 344.238281 298.972656 C 344.238281 303.382812 258.726562 369.1875 252.992188 369.1875 C 250.230469 369.1875 239.453125 359.671875 229.042969 348.042969 Z M 174.625 292.210938 C 158.914062 276.324219 157.039062 273.355469 160.601562 270.050781 C 165.710938 265.300781 416.730469 103.339844 421.816406 101.433594 C 425.832031 99.976562 460.597656 121.019531 460.597656 124.90625 C 460.597656 127.6875 203.300781 307.832031 197.046875 309.421875 C 194.558594 310.0625 185.152344 302.828125 174.625 292.179688 Z M 342.019531 266.628906 C 331.660156 258.027344 323.234375 249.511719 323.300781 247.699219 C 323.363281 245.886719 332.519531 238.015625 343.632812 230.199219 C 354.753906 222.390625 404.589844 186.75 454.417969 150.988281 C 504.210938 115.230469 547.007812 85.96875 549.511719 85.96875 C 556.214844 85.96875 590.148438 105.574219 589.054688 108.828125 C 587.480469 113.546875 369.710938 282.21875 365.152344 282.21875 C 362.789062 282.238281 352.378906 275.21875 342.011719 266.617188 Z M 124.058594 241.371094 C 111.683594 228.292969 109.894531 225.136719 113.125 222.1875 C 115.929688 219.632812 271.40625 127.820312 290.167969 117.625 C 293.277344 115.941406 326.234375 139.714844 325.1875 142.871094 C 323.824219 146.960938 148.460938 257.015625 143.265625 257.015625 C 140.789062 257.015625 132.101562 249.976562 123.960938 241.371094 Z M 499.980469 242.417969 C 488.605469 234.257812 478.851562 226.253906 478.3125 224.644531 C 477.546875 222.34375 580.691406 136.648438 604.046875 120.144531 C 608.59375 116.9375 612.171875 118.003906 631.683594 128.398438 C 644.011719 134.964844 654.074219 141.667969 654.050781 143.296875 C 653.996094 147.472656 531.183594 255.429688 525.457031 256.488281 C 522.828125 256.9375 511.367188 250.628906 499.980469 242.464844 Z M 82.179688 197.015625 L 67.222656 181.871094 L 73.863281 177.566406 C 77.515625 175.203125 151.644531 134.78125 238.609375 87.738281 L 396.675781 2.210938 L 411.792969 9.621094 C 420.105469 13.695312 426.910156 18.414062 426.910156 20.101562 C 426.910156 22.410156 101.871094 212.140625 97.949219 212.140625 C 97.515625 212.140625 90.433594 205.324219 82.207031 196.996094 Z M 325.269531 120.664062 C 317.945312 115.167969 311.957031 109.207031 311.964844 107.425781 C 311.976562 105.648438 341.609375 86.75 377.8125 65.425781 L 443.636719 26.667969 L 460.535156 35.675781 C 469.828125 40.628906 477.433594 45.636719 477.433594 46.800781 C 477.433594 50.128906 348.308594 130.835938 343.21875 130.742188 C 340.6875 130.699219 332.621094 126.15625 325.292969 120.65625 Z M 457.152344 103.898438 C 448.28125 98.417969 441.046875 92.464844 441.082031 90.652344 C 441.132812 87.59375 485.96875 57.574219 493.324219 55.664062 C 496.707031 54.789062 526.878906 70.703125 529.316406 74.648438 C 530.050781 75.835938 528.472656 78.75 525.808594 81.121094 C 516.699219 89.226562 479.300781 114.015625 476.289062 113.941406 C 474.636719 113.902344 466.027344 109.382812 457.15625 103.902344 Z M 457.152344 103.898438 " fill-opacity="1" fill-rule="nonzero"/><path stroke-linecap="round" transform="matrix(13.499999, 0, 0, 13.499999, 242.999991, 519.95109)" fill="none" stroke-linejoin="round" d="M 20.000002 16.999862 L 20.000002 19.999862 C 20.000002 20.065545 19.993636 20.130649 19.980904 20.195175 C 19.967884 20.259411 19.949076 20.321911 19.923902 20.382675 C 19.898728 20.443439 19.868057 20.50102 19.831599 20.555707 C 19.794851 20.610105 19.753474 20.660742 19.707178 20.707038 C 19.660592 20.753624 19.610245 20.795001 19.555557 20.83146 C 19.50087 20.867918 19.443289 20.898879 19.382814 20.923763 C 19.32205 20.948937 19.25955 20.968034 19.195025 20.980765 C 19.130789 20.993497 19.065684 20.999862 19.000002 20.999862 L 5.000001 20.999862 C 4.934318 20.999862 4.869214 20.993497 4.804978 20.980765 C 4.740452 20.968034 4.677952 20.948937 4.617188 20.923763 C 4.556714 20.898879 4.499133 20.867918 4.444445 20.83146 C 4.389758 20.795001 4.339411 20.753624 4.292825 20.707038 C 4.246529 20.660742 4.205151 20.610105 4.168404 20.555707 C 4.131945 20.50102 4.101274 20.443439 4.0761 20.382675 C 4.050927 20.321911 4.032119 20.259411 4.019098 20.195175 C 4.006367 20.130649 4.000001 20.065545 4.000001 19.999862 L 4.000001 16.999862 " stroke="#2ca9bc" stroke-width="2" stroke-opacity="1" stroke-miterlimit="4"/><path stroke-linecap="round" transform="matrix(13.499999, 0, 0, 13.499999, 242.999991, 519.95109)" fill="none" stroke-linejoin="round" d="M 5.649885 10.560047 L 7.000001 8.999862 C 7.042536 8.950093 7.0897 8.904954 7.141494 8.864156 C 7.192999 8.823647 7.247976 8.788346 7.306714 8.758542 C 7.365163 8.728739 7.425927 8.705012 7.489295 8.687362 C 7.552374 8.669422 7.61661 8.658137 7.682293 8.652929 C 7.747686 8.647721 7.81308 8.649167 7.878184 8.65698 C 7.943288 8.664792 8.007235 8.678681 8.069735 8.699225 C 8.132235 8.71948 8.191841 8.745522 8.249133 8.777929 C 8.306425 8.810047 8.360244 8.847373 8.410013 8.889908 L 10.000001 10.34014 L 10.000001 2.999862 L 14.000001 2.999862 L 14.000001 10.34014 L 15.640048 8.930128 C 15.688659 8.886147 15.741032 8.847373 15.797455 8.813809 C 15.853589 8.780244 15.912617 8.752466 15.974249 8.730475 C 16.035881 8.708485 16.099249 8.69257 16.164064 8.683022 C 16.228879 8.673473 16.293983 8.670579 16.359376 8.673762 C 16.42477 8.676945 16.489295 8.686494 16.552953 8.702408 C 16.61661 8.718322 16.677953 8.740313 16.736981 8.76838 C 16.796298 8.796447 16.852143 8.829723 16.904805 8.868785 C 16.957467 8.907848 17.006078 8.95154 17.050059 8.999862 L 18.350117 10.520117 C 18.374134 10.54529 18.396703 10.571621 18.418115 10.59911 C 18.439238 10.626887 18.459203 10.655533 18.477432 10.685047 C 18.495951 10.71485 18.512444 10.745522 18.527779 10.776772 C 18.542826 10.808311 18.556136 10.840429 18.567999 10.873126 C 18.579573 10.906112 18.589701 10.939387 18.598092 10.973242 C 18.606194 11.007096 18.612849 11.041239 18.617478 11.075961 C 18.622108 11.110394 18.625002 11.145117 18.626159 11.180128 C 18.627027 11.21485 18.626448 11.249573 18.623844 11.284295 C 18.62124 11.319306 18.6169 11.353739 18.610534 11.388172 C 18.604458 11.422316 18.596356 11.45617 18.586518 11.489735 C 18.576969 11.523299 18.565395 11.555996 18.552374 11.588404 C 18.539064 11.620811 18.524307 11.652061 18.507814 11.683022 C 18.491321 11.713693 18.473381 11.743496 18.453705 11.772142 C 18.434029 11.801077 18.412907 11.828855 18.390627 11.855475 C 18.368057 11.882096 18.34433 11.907559 18.319157 11.931575 C 18.293983 11.955881 18.267652 11.978739 18.239874 11.999862 L 12.649886 16.790082 C 12.605036 16.828566 12.557004 16.862709 12.506078 16.892513 C 12.455152 16.922316 12.401911 16.947779 12.346355 16.968034 C 12.291089 16.988578 12.234087 17.003913 12.175927 17.01433 C 12.117767 17.024747 12.059029 17.029955 12.000001 17.029955 C 11.940973 17.029955 11.882235 17.024747 11.824075 17.01433 C 11.765916 17.003913 11.708913 16.988578 11.653647 16.968034 C 11.598092 16.947779 11.544851 16.922316 11.493925 16.892513 C 11.442999 16.862709 11.394966 16.828566 11.350117 16.790082 L 5.760128 11.999862 C 5.707756 11.957038 5.660591 11.909584 5.618056 11.857212 C 5.575522 11.804839 5.538774 11.748705 5.507524 11.688809 C 5.476563 11.628913 5.451679 11.566702 5.433161 11.501598 C 5.414642 11.436783 5.402779 11.370811 5.39757 11.303392 C 5.392651 11.236262 5.394098 11.169133 5.402779 11.102293 C 5.41117 11.035163 5.426216 10.969769 5.447918 10.905823 C 5.469619 10.842165 5.497397 10.781112 5.53154 10.722663 C 5.565394 10.664503 5.605036 10.610105 5.649885 10.560047 Z M 5.649885 10.560047 " stroke="#000000" stroke-width="2" stroke-opacity="1" stroke-miterlimit="4"/></svg>