<?xml version="1.0" standalone="no"?>
<!DOCTYPE svg PUBLIC "-//W3C//DTD SVG 20010904//EN"
 "http://www.w3.org/TR/2001/REC-SVG-20010904/DTD/svg10.dtd">
<svg version="1.0" xmlns="http://www.w3.org/2000/svg"
 width="400.000000pt" height="400.000000pt" viewBox="0 0 400.000000 400.000000"
 preserveAspectRatio="xMidYMid meet">

<g transform="translate(0.000000,400.000000) scale(0.100000,-0.100000)"
fill="#000000" stroke="none">
<path d="M902 3213 c-60 -21 -144 -102 -173 -165 l-24 -53 0 -995 0 -995 24
-53 c30 -67 114 -145 179 -166 43 -15 153 -16 1048 -14 l999 3 54 30 c66 37
115 92 141 162 20 52 20 77 20 1033 0 956 0 981 -20 1033 -26 70 -75 125 -141
162 l-54 30 -1005 2 c-877 1 -1010 0 -1048 -14z m2045 -159 c15 -11 38 -40 51
-64 l22 -44 0 -946 0 -946 -22 -44 c-13 -24 -36 -53 -51 -64 -28 -21 -37 -21
-994 -24 -953 -2 -967 -2 -1007 18 -23 11 -50 33 -61 48 -20 27 -20 43 -20
1012 0 969 0 985 20 1012 11 15 38 37 60 48 39 20 52 20 1007 18 958 -3 967
-3 995 -24z"/>
<path d="M1760 2874 c-133 -16 -257 -59 -308 -107 -71 -66 -106 -189 -99 -347
7 -142 25 -189 101 -266 77 -77 169 -122 406 -199 347 -112 420 -167 420 -317
0 -86 -21 -126 -85 -158 -91 -45 -359 -39 -455 10 -48 25 -79 74 -93 150 l-12
60 -152 0 -153 0 0 -37 c1 -68 20 -187 37 -237 10 -28 39 -73 65 -101 93 -103
227 -137 538 -137 221 0 324 15 420 58 78 35 144 105 165 177 26 85 37 216 26
303 -30 238 -126 321 -522 454 -290 97 -386 151 -405 227 -10 38 14 127 39
151 43 41 103 54 242 55 77 0 148 -5 175 -12 59 -17 116 -74 125 -126 4 -22 8
-46 10 -52 3 -10 43 -13 156 -13 l152 0 -6 88 c-13 213 -94 310 -297 357 -73
17 -401 30 -490 19z"/>
</g>
</svg>
